<?xml version="1.0" standalone="no"?>
<!DOCTYPE svg PUBLIC "-//W3C//DTD SVG 20010904//EN"
 "http://www.w3.org/TR/2001/REC-SVG-20010904/DTD/svg10.dtd">
<svg version="1.0" xmlns="http://www.w3.org/2000/svg"
 width="1024.000000pt" height="1024.000000pt" viewBox="0 0 1024.000000 1024.000000"
 preserveAspectRatio="xMidYMid meet">

<g transform="translate(0.000000,1024.000000) scale(0.100000,-0.100000)"
fill="#000000" stroke="none">
<path d="M6625 8509 c-358 -19 -594 -46 -920 -104 -629 -113 -1215 -317 -1737
-606 -71 -39 -128 -74 -128 -78 0 -4 48 -46 108 -94 128 -102 172 -142 172
-156 0 -21 -19 -10 -146 80 -619 441 -1078 699 -1240 699 -66 0 -100 -35 -124
-130 -56 -213 -99 -771 -100 -1270 l0 -225 -40 -60 c-180 -267 -339 -611 -429
-931 -216 -764 -121 -1606 251 -2234 57 -96 138 -220 143 -220 2 0 -3 17 -13
38 -12 27 -16 67 -17 147 0 99 3 116 27 167 53 114 158 192 296 219 72 14 182
7 256 -16 l49 -15 -55 58 c-184 194 -308 510 -339 862 -27 320 20 648 132 922
275 669 912 992 1549 787 161 -52 354 -174 490 -309 99 -99 165 -185 246 -321
33 -54 62 -99 65 -99 4 0 29 39 57 88 181 314 456 545 768 647 154 50 379 69
544 45 394 -57 744 -326 949 -729 136 -267 191 -518 191 -859 -1 -310 -53
-559 -166 -785 -43 -85 -128 -209 -187 -270 -31 -31 -54 -57 -52 -57 2 0 37 7
77 16 93 19 257 22 328 5 178 -44 269 -149 278 -322 9 -178 -76 -345 -278
-547 -46 -45 -81 -84 -79 -86 2 -1 112 -10 244 -19 448 -32 725 -69 1169 -157
136 -28 252 -47 257 -44 33 20 -26 467 -97 729 -175 645 -426 1101 -816 1481
l-103 100 40 26 c413 262 1297 830 1314 844 16 14 -31 76 -157 205 -452 466
-937 807 -1348 949 -125 43 -242 72 -248 61 -2 -3 0 -95 6 -205 7 -142 7 -201
-1 -209 -6 -6 -13 -8 -16 -5 -17 17 -67 455 -100 878 -42 536 -68 610 -216
610 -28 0 -77 -7 -109 -15 -177 -46 -565 -246 -972 -502 -134 -84 -168 -100
-168 -79 0 33 437 333 715 491 538 306 746 284 811 -85 9 -54 21 -215 28 -370
l11 -275 114 285 c63 157 168 415 233 574 65 159 118 299 118 312 0 20 -9 24
-87 43 -398 92 -1090 146 -1548 120z m-3654 -669 c57 -30 187 -111 364 -228
321 -212 327 -217 263 -266 -40 -30 -404 -248 -625 -376 -191 -109 -193 -109
-193 4 0 159 51 821 66 861 14 35 64 37 125 5z m4437 -106 c13 -9 27 -26 32
-39 15 -41 46 -825 32 -825 -4 0 -82 43 -173 97 -90 53 -245 142 -344 199
-247 140 -240 135 -243 166 -4 34 10 46 158 139 239 150 472 279 505 279 6 0
21 -7 33 -16z"/>
<path d="M3915 4931 c-185 -48 -315 -272 -315 -545 0 -94 20 -217 46 -273 68
-154 121 -218 214 -262 154 -72 320 1 411 181 159 313 61 780 -184 883 -44 18
-132 27 -172 16z m121 -101 c81 -39 93 -123 26 -181 -33 -29 -39 -31 -95 -27
-52 4 -64 9 -88 36 -41 45 -41 107 0 146 26 25 66 43 100 45 8 1 34 -8 57 -19z"/>
<path d="M6169 4927 c-141 -40 -243 -167 -289 -359 -54 -227 1 -494 131 -633
74 -79 137 -109 229 -109 151 0 267 108 333 308 28 84 30 102 31 241 0 166
-12 230 -65 343 -36 75 -121 165 -181 192 -58 26 -133 32 -189 17z m102 -87
c55 -15 92 -60 92 -111 0 -36 -6 -48 -36 -76 -33 -29 -43 -33 -93 -33 -50 0
-59 3 -90 34 -28 28 -34 41 -34 78 0 36 6 50 29 72 23 22 59 40 91 45 3 1 21
-4 41 -9z"/>
<path d="M4975 3760 c-156 -52 -243 -190 -196 -313 19 -48 88 -113 154 -143
52 -23 79 -29 163 -32 161 -7 273 39 334 135 39 62 45 100 26 166 -22 74 -78
136 -158 172 -86 39 -232 45 -323 15z"/>
<path d="M6835 3293 c-90 -20 -127 -35 -137 -58 -9 -21 -8 -29 7 -45 18 -19
26 -20 127 -14 125 8 123 10 79 -82 -35 -74 -132 -180 -215 -234 -187 -123
-465 -169 -722 -119 -58 11 -118 19 -132 17 -59 -7 -55 -77 6 -101 138 -55
447 -62 633 -14 270 70 487 256 559 480 6 20 15 37 20 37 4 0 42 -11 84 -25
85 -29 116 -24 116 20 0 49 -74 94 -202 125 -76 18 -174 24 -223 13z"/>
</g>
</svg>
